<?xml version="1.0" encoding="utf-8"?>
<!-- Generator: Adobe Illustrator 27.2.0, SVG Export Plug-In . SVG Version: 6.00 Build 0)  -->
<svg version="1.1" id="Layer_1" xmlns="http://www.w3.org/2000/svg" xmlns:xlink="http://www.w3.org/1999/xlink" x="0px" y="0px"
	 viewBox="0 0 576 512" style="enable-background:new 0 0 576 512;" xml:space="preserve">
<style type="text/css">
	.st0{fill:#3A004A;}
</style>
<path class="st0" d="M309,106c11.4-7,19-19.7,19-34c0-22.1-17.9-40-40-40s-40,17.9-40,40c0,14.4,7.6,27,19,34l-57.3,114.6
	c-9.1,18.2-32.7,23.4-48.6,10.7L72,160c5-6.7,8-15,8-24c0-22.1-17.9-40-40-40S0,113.9,0,136s17.9,40,40,40c0.2,0,0.5,0,0.7,0
	l45.7,251.4c5.5,30.4,32,52.6,63,52.6h277.2c30.9,0,57.4-22.1,63-52.6L535.3,176c0.2,0,0.5,0,0.7,0c22.1,0,40-17.9,40-40
	s-17.9-40-40-40s-40,17.9-40,40c0,9,3,17.3,8,24l-89.1,71.3c-15.9,12.7-39.5,7.5-48.6-10.7L309,106z"/>
</svg>
