<?xml version="1.0" encoding="UTF-8"?><svg id="Layer_2" xmlns="http://www.w3.org/2000/svg" viewBox="0 0 510.25 194"><defs><style>.cls-1{fill:#3a004a;}</style></defs><g id="Layer_1-2"><rect class="cls-1" width="437" height="194" rx="49" ry="49"/><path class="cls-1" d="m445,31.75h-44.5c-18.02,0-34.33,7.3-46.14,19.11-11.81,11.81-19.11,28.12-19.11,46.14,0,36.04,29.21,65.25,65.25,65.25h44.5c18.02,0,34.33-7.3,46.14-19.11,11.81-11.81,19.11-28.12,19.11-46.14,0-36.04-29.21-65.25-65.25-65.25Zm25.86,91.53c-6.72,6.73-16.02,10.89-26.28,10.89h-15.66c-20.53,0-37.17-16.64-37.17-37.17,0-10.27,4.16-19.56,10.89-26.28,6.72-6.73,16.02-10.89,26.28-10.89h15.66c20.53,0,37.17,16.64,37.17,37.17,0,10.27-4.16,19.56-10.89,26.28Z"/></g></svg>