<?xml version="1.0" encoding="utf-8"?>
<!-- Generator: Adobe Illustrator 27.2.0, SVG Export Plug-In . SVG Version: 6.00 Build 0)  -->
<svg version="1.1" id="Layer_1" xmlns="http://www.w3.org/2000/svg" xmlns:xlink="http://www.w3.org/1999/xlink" x="0px" y="0px"
	 viewBox="0 0 512 512" style="enable-background:new 0 0 512 512;" xml:space="preserve">
<style type="text/css">
	.st0{fill:#3A004A;}
</style>
<path class="st0" d="M512,80c0,18-14.3,34.6-38.4,48c-29.1,16.1-72.5,27.5-122.3,30.9c-3.7-1.8-7.4-3.5-11.3-5
	c-39.4-16.5-91.8-25.9-148-25.9c-8.3,0-16.4,0.2-24.5,0.6l-1.1-0.6C142.3,114.6,128,98,128,80c0-44.2,86-80,192-80S512,35.8,512,80z
	 M160.7,161.1c10.2-0.7,20.7-1.1,31.3-1.1c62.2,0,117.4,12.3,152.5,31.4c24.8,13.5,39.5,30.3,39.5,48.6c0,4-0.7,7.9-2.1,11.7
	c-4.6,13.2-17,25.3-35,35.5l0,0c-0.1,0.1-0.3,0.1-0.4,0.2l0,0l0,0c-0.3,0.2-0.6,0.3-0.9,0.5c-35,19.4-90.8,32-153.6,32
	c-59.6,0-112.9-11.3-148.2-29.1c-1.9-0.9-3.7-1.9-5.5-2.9C14.3,274.6,0,258,0,240c0-34.8,53.4-64.5,128-75.4
	C138.5,163.1,149.4,161.9,160.7,161.1z M416,240c0-21.9-10.6-39.9-24.1-53.4c28.3-4.4,54.2-11.4,76.2-20.5
	c16.3-6.8,31.5-15.2,43.9-25.5V176c0,19.3-16.5,37.1-43.8,50.9c-14.6,7.4-32.4,13.7-52.4,18.5C415.9,243.6,416,241.9,416,240
	L416,240z M384,336c0,18-14.3,34.6-38.4,48c-1.8,1-3.6,1.9-5.5,2.9C304.9,404.7,251.6,416,192,416c-62.8,0-118.6-12.6-153.6-32
	C14.3,370.6,0,354,0,336v-35.4c12.5,10.3,27.6,18.7,43.9,25.5C83.4,342.6,135.8,352,192,352s108.6-9.4,148.1-25.9
	c7.8-3.2,15.3-6.9,22.4-10.9c6.1-3.4,11.8-7.2,17.2-11.2c1.5-1.1,2.9-2.3,4.3-3.4v3.4v5.7V336z M416,336v-32v-25.9
	c19-4.2,36.5-9.5,52.1-16c16.3-6.8,31.5-15.2,43.9-25.5V272c0,10.5-5,21-14.9,30.9c-16.3,16.3-45,29.7-81.3,38.4
	C415.9,339.6,416,337.8,416,336z M192,448c56.2,0,108.6-9.4,148.1-25.9c16.3-6.8,31.5-15.2,43.9-25.5V432c0,44.2-86,80-192,80
	S0,476.2,0,432v-35.4c12.5,10.3,27.6,18.7,43.9,25.5C83.4,438.6,135.8,448,192,448z"/>
</svg>
