<?xml version="1.0" encoding="UTF-8"?><svg id="Layer_2" xmlns="http://www.w3.org/2000/svg" viewBox="0 0 588.8 71.25"><defs><style>.cls-1{isolation:isolate;}.cls-2{fill:#3a004a;}</style></defs><g id="Artboard_1" class="cls-1"><g id="Group_2"><path class="cls-2" d="m587.71,51.3c-.73-1.65-1.95-3.1-3.66-4.37-1.27-1.08-2.87-2.01-4.8-2.8-1.93-.8-4.29-1.57-7.08-2.33-2.4-.63-4.41-1.25-6.03-1.85-1.61-.61-2.87-1.25-3.75-1.95-.7-.57-1.24-1.24-1.62-2-.38-.76-.57-1.61-.57-2.56,0-1.14.24-2.19.72-3.14.47-.95,1.17-1.75,2.09-2.42.91-.66,2.02-1.19,3.32-1.57,1.3-.38,2.71-.57,4.23-.57,1.71,0,3.37.29,4.99.86,1.61.57,3.15,1.36,4.6,2.37,1.46,1.02,2.79,2.16,3.99,3.42l4.37-4.75c-1.39-1.64-3.07-3.07-5.03-4.27-1.97-1.2-4.09-2.12-6.37-2.76-2.28-.63-4.59-.95-6.93-.95-2.47,0-4.77.34-6.89,1-2.12.67-3.96,1.65-5.51,2.95-1.55,1.29-2.75,2.8-3.61,4.51-.85,1.71-1.28,3.58-1.28,5.6,0,1.59.24,3.04.71,4.37.48,1.33,1.19,2.57,2.14,3.71,1.33,1.39,3.16,2.61,5.51,3.66,2.34,1.04,5.29,2.07,8.83,3.08,2.16.57,3.99,1.16,5.51,1.76,1.52.6,2.69,1.19,3.52,1.76,1.83,1.39,2.75,3.13,2.75,5.22,0,1.14-.25,2.19-.76,3.14-.5.95-1.23,1.77-2.18,2.47-.95.7-2.06,1.22-3.33,1.57-1.26.34-2.69.52-4.27.52-3.11,0-5.91-.57-8.41-1.71s-4.67-2.82-6.51-5.04l-5.03,4.37c1.96,2.6,4.62,4.69,7.98,6.27,3.35,1.59,7.15,2.38,11.4,2.38,3.48,0,6.58-.62,9.31-1.85,2.72-1.24,4.86-2.93,6.41-5.09,1.55-2.15,2.33-4.62,2.33-7.41,0-2.09-.37-3.95-1.09-5.6ZM533.98,0v28.64c-1.2-1.74-2.72-3.29-4.56-4.65-1.83-1.37-3.91-2.43-6.22-3.19-2.31-.76-4.7-1.14-7.17-1.14-4.44,0-8.42,1.11-11.97,3.33-3.55,2.22-6.37,5.27-8.46,9.17-2.09,3.89-3.13,8.34-3.13,13.34s1.03,9.36,3.09,13.26c2.05,3.89,4.87,6.95,8.45,9.16,3.58,2.22,7.62,3.33,12.11,3.33,2.41,0,4.74-.38,6.99-1.14,2.24-.76,4.26-1.81,6.03-3.14s3.24-2.83,4.42-4.51c.14-.2.27-.39.39-.59l.13,8.43h7.03V0h-7.13Zm-1.85,55.38c-1.49,2.92-3.53,5.2-6.13,6.84-2.59,1.65-5.54,2.47-8.83,2.47s-6.43-.83-9.03-2.51c-2.59-1.68-4.62-3.98-6.08-6.89-1.45-2.91-2.18-6.21-2.18-9.88s.74-7.05,2.23-9.93c1.49-2.88,3.52-5.16,6.08-6.84,2.57-1.68,5.56-2.52,8.98-2.52s6.24.84,8.83,2.52c2.6,1.68,4.64,3.96,6.13,6.84s2.23,6.19,2.23,9.93-.74,7.06-2.23,9.97Zm-45.84-11.87c.13-3.48-.31-6.68-1.33-9.6-1.01-2.91-2.51-5.43-4.51-7.55-1.99-2.12-4.37-3.78-7.12-4.99-2.76-1.2-5.82-1.8-9.17-1.8-3.55,0-6.84.65-9.88,1.95-3.04,1.29-5.65,3.12-7.84,5.46-2.18,2.34-3.88,5.08-5.08,8.22-1.2,3.13-1.81,6.63-1.81,10.49,0,5.01,1.08,9.44,3.23,13.3,2.16,3.87,5.15,6.88,8.98,9.03,3.83,2.15,8.22,3.23,13.16,3.23,2.53,0,5-.33,7.41-1,2.41-.66,4.62-1.55,6.65-2.66,2.02-1.11,3.77-2.39,5.22-3.85l-3.7-5.13c-2.79,2.35-5.34,3.91-7.65,4.71-2.31.79-4.64,1.18-6.98,1.18-3.99,0-7.4-.79-10.21-2.37-2.82-1.58-4.99-3.82-6.51-6.7-1.31-2.48-2.05-5.34-2.23-8.6h39.28l.09-3.32Zm-7.22-2.66h-31.91c.34-2.26.93-4.25,1.8-5.99,1.39-2.78,3.39-4.89,5.98-6.31,2.6-1.43,5.67-2.14,9.22-2.14,3.04,0,5.65.66,7.84,1.99,2.18,1.33,3.88,3.06,5.08,5.18s1.87,4.32,1.99,6.6v.67Zm-49.01-8.74c-2.09-3.86-4.9-6.9-8.41-9.12-3.52-2.22-7.49-3.33-11.92-3.33-2.28,0-4.49.35-6.61,1.05-2.12.7-4.07,1.66-5.84,2.9-1.77,1.23-3.25,2.66-4.42,4.27-.37.51-.7,1.03-.99,1.55V0h-7.13v70.2h7.03l.19-8.15c.16.25.34.5.52.74,1.24,1.65,2.76,3.11,4.56,4.37,1.81,1.27,3.82,2.27,6.04,3,2.21.72,4.49,1.09,6.84,1.09,4.43,0,8.4-1.11,11.92-3.33,3.51-2.21,6.28-5.27,8.31-9.16,2.03-3.9,3.04-8.35,3.04-13.35s-1.04-9.44-3.13-13.3Zm-6.23,23.04c-1.49,2.88-3.53,5.16-6.12,6.84-2.6,1.67-5.58,2.51-8.93,2.51s-6.34-.82-8.93-2.47c-2.6-1.64-4.64-3.91-6.13-6.79s-2.23-6.16-2.23-9.83.74-6.94,2.23-9.79c1.49-2.85,3.53-5.09,6.13-6.74,2.59-1.65,5.57-2.47,8.93-2.47s6.33.82,8.93,2.47c2.59,1.65,4.63,3.89,6.12,6.74,1.49,2.85,2.24,6.12,2.24,9.79s-.75,6.86-2.24,9.74ZM330.69,7.69v62.61h7.12V7.69h-7.12Zm-11.21,13.02v6.84h30.87v-6.84h-30.87Zm-6.84-.81c-.95-.16-1.96-.24-3.04-.24-2.6,0-4.97.57-7.13,1.71-2.15,1.14-4,2.66-5.55,4.56-1.11,1.36-2,2.79-2.66,4.31l-.14-9.53h-7.13v49.59h7.22v-28.12c0-2.03.32-3.93.95-5.7.63-1.77,1.55-3.34,2.76-4.7,1.2-1.37,2.66-2.43,4.37-3.19,1.71-.76,3.64-1.14,5.79-1.14.76,0,1.57.08,2.42.24.86.16,1.7.43,2.52.81l1.99-7.98c-.63-.25-1.42-.46-2.37-.62Zm-38.81,12.21c-2.18-3.86-5.19-6.9-9.02-9.12-3.83-2.22-8.19-3.33-13.06-3.33s-9.33,1.11-13.16,3.33c-3.83,2.22-6.84,5.26-9.03,9.12-2.18,3.86-3.27,8.26-3.27,13.2s1.09,9.47,3.27,13.4c2.19,3.93,5.2,7,9.03,9.21,3.83,2.22,8.22,3.33,13.16,3.33s9.23-1.11,13.06-3.33c3.83-2.21,6.84-5.28,9.02-9.21,2.19-3.93,3.28-8.39,3.28-13.4s-1.09-9.34-3.28-13.2Zm-9.21,27.27c-3.52,3.52-11.51,7.27-19.22,4.06-8.91-3.71-10.57-10.69-10.61-10.9.45.19,12.84,5.66,21.26-2.76,8.43-8.43,3.02-21.62,2.83-22.09.25.09,8.54,3.42,10.34,13.05,1.83,9.79-2.48,16.52-4.6,18.64ZM220.63,1.38c-1.61-.73-3.43-1.1-5.46-1.1-2.66,0-4.99.56-6.98,1.67-2,1.1-3.53,2.61-4.61,4.51s-1.61,4.08-1.61,6.55v57.29h7.22V13.01c0-1.26.23-2.36.71-3.27.47-.92,1.19-1.62,2.14-2.09.95-.48,2.12-.72,3.51-.72,1.08,0,2.2.24,3.37.72,1.17.47,2.27,1.25,3.28,2.32l2.47-5.6c-1.08-1.27-2.42-2.27-4.04-2.99Zm-27.5,19.71v6.65h28.69v-6.65h-28.69Zm-11.73,7.69c-1.24-3.04-3.06-5.3-5.46-6.79-2.41-1.49-5.36-2.23-8.84-2.23-2.03,0-4.01.3-5.94.9-1.93.6-3.7,1.44-5.32,2.52-1.61,1.08-3.04,2.3-4.27,3.66-1.1,1.21-1.96,2.45-2.57,3.73-.67-2.02-1.49-3.75-2.47-5.16-1.42-2.06-3.16-3.51-5.22-4.37-2.06-.85-4.39-1.28-6.98-1.28-2.16,0-4.22.3-6.18.9-1.96.6-3.77,1.47-5.41,2.61-1.65,1.14-3.06,2.49-4.23,4.04-.42.56-.8,1.14-1.14,1.75l-.14-8.35h-7.13v49.59h7.22v-30.12c0-1.9.36-3.67,1.09-5.32.73-1.64,1.74-3.1,3.04-4.37,1.3-1.26,2.84-2.26,4.61-2.99,1.77-.73,3.71-1.09,5.8-1.09,2.4,0,4.43.54,6.08,1.61,1.64,1.08,2.89,2.66,3.75,4.75.85,2.09,1.28,4.72,1.28,7.89v29.64h7.22v-30.02c0-1.9.36-3.67,1.09-5.32s1.74-3.12,3.04-4.42,2.85-2.31,4.66-3.04c1.8-.73,3.78-1.09,5.94-1.09,2.47,0,4.51.52,6.12,1.57,1.62,1.04,2.84,2.61,3.66,4.7.82,2.09,1.24,4.78,1.24,8.07v29.55h7.31v-29.93c0-4.68-.62-8.55-1.85-11.59Zm-84.36,3.33c-2.19-3.86-5.2-6.9-9.03-9.12-3.83-2.22-8.18-3.33-13.06-3.33s-9.32,1.11-13.16,3.33c-3.83,2.22-6.84,5.26-9.02,9.12-2.19,3.86-3.28,8.26-3.28,13.2s1.09,9.47,3.28,13.4c2.18,3.93,5.19,7,9.02,9.21,3.84,2.22,8.22,3.33,13.16,3.33s9.23-1.11,13.06-3.33c3.83-2.21,6.84-5.28,9.03-9.21,2.18-3.93,3.28-8.39,3.28-13.4s-1.1-9.34-3.28-13.2Zm-6.41,23.04c-1.52,2.88-3.65,5.16-6.37,6.84-2.72,1.67-5.83,2.51-9.31,2.51s-6.6-.84-9.36-2.51c-2.75-1.68-4.9-3.96-6.46-6.84-1.55-2.88-2.29-6.16-2.23-9.84-.06-3.61.68-6.85,2.23-9.73,1.56-2.89,3.71-5.13,6.46-6.75,2.76-1.61,5.88-2.42,9.36-2.42s6.59.81,9.31,2.42c2.72,1.62,4.85,3.85,6.37,6.7,1.52,2.85,2.28,6.11,2.28,9.78s-.76,6.96-2.28,9.84Zm-55.1,5.84c-1.65,1.14-3.39,2.01-5.23,2.61-1.84.6-3.7.9-5.6.9-3.3,0-6.27-.82-8.93-2.47-2.66-1.64-4.77-3.91-6.32-6.79s-2.33-6.16-2.33-9.83.78-6.94,2.33-9.79c1.55-2.85,3.66-5.11,6.32-6.79s5.67-2.52,9.02-2.52c1.9,0,3.82.34,5.75,1,1.93.67,3.74,1.6,5.42,2.8,1.67,1.21,3.11,2.6,4.32,4.18l4.18-5.13c-2.09-2.97-4.88-5.3-8.36-6.98-3.49-1.68-7.35-2.52-11.59-2.52-4.75,0-8.97,1.11-12.64,3.33-3.67,2.22-6.57,5.27-8.69,9.17-2.12,3.89-3.18,8.31-3.18,13.25s1.06,9.36,3.18,13.25c2.12,3.9,5.02,6.97,8.69,9.22,3.67,2.24,7.86,3.37,12.54,3.37,3.86,0,7.6-.86,11.21-2.57,3.61-1.71,6.49-3.99,8.65-6.84l-4.18-5.13c-1.4,1.71-2.92,3.14-4.56,4.28Z"/></g></g></svg>