<?xml version="1.0" encoding="utf-8"?>
<!-- Generator: Adobe Illustrator 27.2.0, SVG Export Plug-In . SVG Version: 6.00 Build 0)  -->
<svg version="1.1" id="Layer_1" xmlns="http://www.w3.org/2000/svg" xmlns:xlink="http://www.w3.org/1999/xlink" x="0px" y="0px"
	 viewBox="0 0 512 512" style="enable-background:new 0 0 512 512;" xml:space="preserve">
<style type="text/css">
	.st0{fill:#3A004A;}
</style>
<path class="st0" d="M0.2,468.9C2.7,493.1,23.1,512,48,512h96h320c26.5,0,48-21.5,48-48v-96c0-26.5-21.5-48-48-48h-48v80
	c0,8.8-7.2,16-16,16s-16-7.2-16-16v-80h-64v80c0,8.8-7.2,16-16,16s-16-7.2-16-16v-80h-64v80c0,8.8-7.2,16-16,16s-16-7.2-16-16v-80
	h-80c-8.8,0-16-7.2-16-16s7.2-16,16-16h80v-64h-80c-8.8,0-16-7.2-16-16s7.2-16,16-16h80v-64h-80c-8.8,0-16-7.2-16-16s7.2-16,16-16
	h80V48c0-26.5-21.5-48-48-48H48C21.5,0,0,21.5,0,48v320v96C0,465.7,0.1,467.3,0.2,468.9z"/>
</svg>
